<?xml version="1.0" standalone="no"?>
<!DOCTYPE svg PUBLIC "-//W3C//DTD SVG 20010904//EN"
 "http://www.w3.org/TR/2001/REC-SVG-20010904/DTD/svg10.dtd">
<svg version="1.0" xmlns="http://www.w3.org/2000/svg"
 width="16.000000pt" height="16.000000pt" viewBox="0 0 16.000000 16.000000"
 preserveAspectRatio="xMidYMid meet">

<g transform="translate(0.000000,16.000000) scale(0.100000,-0.100000)"
fill="#000000" stroke="none">
<path d="M25 135 c-50 -49 -15 -135 55 -135 41 0 80 39 80 80 0 41 -39 80 -80
80 -19 0 -40 -9 -55 -25z m110 -11 c26 -34 14 -94 -20 -108 -12 -4 -14 0 -9
22 4 15 13 34 20 43 12 13 12 18 -1 35 -13 17 -14 17 -15 2 0 -10 5 -18 11
-18 5 0 7 -5 3 -11 -4 -8 -9 -7 -15 2 -8 12 -10 12 -18 0 -6 -9 -11 -10 -15
-2 -4 6 -15 11 -24 10 -11 0 -9 -3 7 -10 l25 -10 -27 -27 c-23 -23 -29 -25
-37 -12 -8 13 -8 29 -1 84 1 8 27 5 66 -8 11 -4 8 0 -7 9 -16 8 -28 18 -28 21
0 13 73 -6 85 -22z m-36 -76 c-5 -18 -9 -34 -9 -35 0 -6 -37 -3 -43 4 -8 7 41
63 54 63 4 0 3 -15 -2 -32z"/>
</g>
</svg>
